<svg xmlns="http://www.w3.org/2000/svg" width="12" height="13.468" viewBox="0 0 12 13.468">
  <path id="Path_4" data-name="Path 4" d="M.257,1.056h4.2V.412A.413.413,0,0,1,4.867,0H7.184A.413.413,0,0,1,7.6.412v.644h4.146A.258.258,0,0,1,12,1.313V2.575H0V1.313a.258.258,0,0,1,.257-.257Zm.7,2.189H11.137a.376.376,0,0,1,.386.386l-.862,9.451a.4.4,0,0,1-.386.386H1.8a.4.4,0,0,1-.386-.386L.566,3.631a.376.376,0,0,1,.386-.386ZM7.571,4.713H8.652v7.159H7.571V4.713Zm-4.275,0H4.377v7.159H3.3V4.713Zm2.137,0H6.515v7.159H5.433V4.713Z" fill="#303d4d" fill-rule="evenodd"/>
</svg>
