<svg xmlns="http://www.w3.org/2000/svg" width="13.5" height="13.4" viewBox="0 0 13.5 13.4">
  <g id="edit-box-icon" transform="translate(0 -0.003)">
    <path id="Path_2" data-name="Path 2" d="M11.837.147A.482.482,0,0,0,11.475,0a.47.47,0,0,0-.354.158l-.8.828L12.56,3.152l.805-.844a.494.494,0,0,0,.135-.361.478.478,0,0,0-.151-.354L11.837.147ZM.917.562H6.433V1.995H1.6a.173.173,0,0,0-.17.17V11.8a.173.173,0,0,0,.17.17h9.637a.173.173,0,0,0,.17-.17V7.156h1.433v5.33a.923.923,0,0,1-.917.917H.917A.923.923,0,0,1,0,12.486V1.48A.91.91,0,0,1,.27.832.916.916,0,0,1,.917.562ZM7.649,8.251c-.293.1-.6.188-.889.287s-.588.2-.889.293c-.7.226-1.084.354-1.168.377s-.03-.3.143-.979L5.4,6.1,5.45,6.05l2.2,2.2ZM6.264,5.2,9.717,1.618l2.237,2.153L8.462,7.4l-2.2-2.2Z" transform="translate(0 0)" fill="#303d4d" fill-rule="evenodd"/>
  </g>
</svg>
